HIERARCHY
ROOT Hips
{
  OFFSET 5.84602e-005 68.8428 3.50346
  CHANNELS 6 Xposition Yposition Zposition Zrotation Xrotation Yrotation
  JOINT Spine
  {
    OFFSET 0 8.597 -4.6522
    CHANNELS 3 Zrotation Xrotation Yrotation
    JOINT Spine1
    {
      OFFSET 0 7.8454 0.4098
      CHANNELS 3 Zrotation Xrotation Yrotation
      JOINT Spine2
      {
        OFFSET 0 9.7078 -2.1609
        CHANNELS 3 Zrotation Xrotation Yrotation
        JOINT Neck
        {
          OFFSET 0 21.8761 -0.4549
          CHANNELS 3 Zrotation Xrotation Yrotation
          JOINT Head
          {
            OFFSET 0 12.3537 3.3602
            CHANNELS 3 Zrotation Xrotation Yrotation
            End Site
            {
              OFFSET 0.0001 18.9506 0.5657
            }
          }
        }
        JOINT LeftShoulder
        {
          OFFSET 2.2086 21.1115 7.2329
          CHANNELS 3 Zrotation Xrotation Yrotation
          JOINT LeftArm
          {
            OFFSET 13.1193 3.0282 -4.8998
            CHANNELS 3 Zrotation Xrotation Yrotation
            JOINT LeftForeArm
            {
              OFFSET 27.4081 -0.0973053 -0.2375
              CHANNELS 3 Zrotation Xrotation Yrotation
              JOINT LeftHand
              {
                OFFSET 22.8641 0.0662994 -0.1369
                CHANNELS 3 Zrotation Xrotation Yrotation
                JOINT LeftHandIndex1
                {
                  OFFSET 8.8614 0.775009 2.4612
                  CHANNELS 3 Zrotation Xrotation Yrotation
                  JOINT LeftHandIndex2
                  {
                    OFFSET 3.3146 -0.808304 0.5841
                    CHANNELS 3 Zrotation Xrotation Yrotation
                    JOINT LeftHandIndex3
                    {
                      OFFSET 2.2628 -0.552002 0.3989
                      CHANNELS 3 Zrotation Xrotation Yrotation
                      End Site
                      {
                        OFFSET 1.6102 -0.4807 0.2612
                      }
                    }
                  }
                }
                JOINT LeftHandMiddle1
                {
                  OFFSET 8.9937 0.895004 0.2143
                  CHANNELS 3 Zrotation Xrotation Yrotation
                  JOINT LeftHandMiddle2
                  {
                    OFFSET 4.0984 0.0113983 -0.0242
                    CHANNELS 3 Zrotation Xrotation Yrotation
                    JOINT LeftHandMiddle3
                    {
                      OFFSET 2.2716 0.00689697 -0.0138001
                      CHANNELS 3 Zrotation Xrotation Yrotation
                      End Site
                      {
                        OFFSET 2.0404 -0.1441 0.0027
                      }
                    }
                  }
                }
                JOINT LeftHandRing1
                {
                  OFFSET 8.5234 0.597198 -2.0164
                  CHANNELS 3 Zrotation Xrotation Yrotation
                  JOINT LeftHandRing2
                  {
                    OFFSET 3.7188 -0.188293 -0.2328
                    CHANNELS 3 Zrotation Xrotation Yrotation
                    JOINT LeftHandRing3
                    {
                      OFFSET 2.1191 -0.106598 -0.1332
                      CHANNELS 3 Zrotation Xrotation Yrotation
                      End Site
                      {
                        OFFSET 1.8737 -0.2304 -0.0886
                      }
                    }
                  }
                }
                JOINT LeftHandPinky1
                {
                  OFFSET 7.9094 -0.601089 -3.4825
                  CHANNELS 3 Zrotation Xrotation Yrotation
                  JOINT LeftHandPinky2
                  {
                    OFFSET 2.2874 -0.477005 -0.6314
                    CHANNELS 3 Zrotation Xrotation Yrotation
                    JOINT LeftHandPinky3
                    {
                      OFFSET 1.6774 -0.349396 -0.4633
                      CHANNELS 3 Zrotation Xrotation Yrotation
                      End Site
                      {
                        OFFSET 1.4888 -0.4091 -0.3416
                      }
                    }
                  }
                }
                JOINT LeftHandThumb1
                {
                  OFFSET 1.833 -1.3875 1.3896
                  CHANNELS 3 Zrotation Xrotation Yrotation
                  JOINT LeftHandThumb2
                  {
                    OFFSET 3.4129 -1.121 2.5732
                    CHANNELS 3 Zrotation Xrotation Yrotation
                    JOINT LeftHandThumb3
                    {
                      OFFSET 2.2474 -0.804199 1.6192
                      CHANNELS 3 Zrotation Xrotation Yrotation
                      End Site
                      {
                        OFFSET 1.6527 -0.5689 1.1317
                      }
                    }
                  }
                }
              }
            }
          }
        }
        JOINT RightShoulder
        {
          OFFSET -2.2086 21.1115 7.2329
          CHANNELS 3 Zrotation Xrotation Yrotation
          JOINT RightArm
          {
            OFFSET -13.1216 3.0287 -4.9007
            CHANNELS 3 Zrotation Xrotation Yrotation
            JOINT RightForeArm
            {
              OFFSET -27.4081 -0.0973053 -0.2375
              CHANNELS 3 Zrotation Xrotation Yrotation
              JOINT RightHand
              {
                OFFSET -22.8641 0.0664063 -0.1369
                CHANNELS 3 Zrotation Xrotation Yrotation
                JOINT RightHandIndex1
                {
                  OFFSET -8.8614 0.774994 2.4612
                  CHANNELS 3 Zrotation Xrotation Yrotation
                  JOINT RightHandIndex2
                  {
                    OFFSET -3.3146 -0.808304 0.5841
                    CHANNELS 3 Zrotation Xrotation Yrotation
                    JOINT RightHandIndex3
                    {
                      OFFSET -2.2628 -0.552002 0.3989
                      CHANNELS 3 Zrotation Xrotation Yrotation
                      End Site
                      {
                        OFFSET -1.6102 -0.4807 0.2612
                      }
                    }
                  }
                }
                JOINT RightHandMiddle1
                {
                  OFFSET -8.9937 0.894989 0.2143
                  CHANNELS 3 Zrotation Xrotation Yrotation
                  JOINT RightHandMiddle2
                  {
                    OFFSET -4.0984 0.0113983 -0.0242
                    CHANNELS 3 Zrotation Xrotation Yrotation
                    JOINT RightHandMiddle3
                    {
                      OFFSET -2.2716 0.00691223 -0.0138001
                      CHANNELS 3 Zrotation Xrotation Yrotation
                      End Site
                      {
                        OFFSET -2.0404 -0.1441 0.0027
                      }
                    }
                  }
                }
                JOINT RightHandRing1
                {
                  OFFSET -8.5234 0.597198 -2.0164
                  CHANNELS 3 Zrotation Xrotation Yrotation
                  JOINT RightHandRing2
                  {
                    OFFSET -3.7188 -0.188309 -0.2328
                    CHANNELS 3 Zrotation Xrotation Yrotation
                    JOINT RightHandRing3
                    {
                      OFFSET -2.1191 -0.106598 -0.1332
                      CHANNELS 3 Zrotation Xrotation Yrotation
                      End Site
                      {
                        OFFSET -1.8737 -0.2304 -0.0886
                      }
                    }
                  }
                }
                JOINT RightHandPinky1
                {
                  OFFSET -7.9094 -0.601105 -3.4825
                  CHANNELS 3 Zrotation Xrotation Yrotation
                  JOINT RightHandPinky2
                  {
                    OFFSET -2.2874 -0.477005 -0.6314
                    CHANNELS 3 Zrotation Xrotation Yrotation
                    JOINT RightHandPinky3
                    {
                      OFFSET -1.6774 -0.349396 -0.4633
                      CHANNELS 3 Zrotation Xrotation Yrotation
                      End Site
                      {
                        OFFSET -1.4888 -0.4091 -0.3416
                      }
                    }
                  }
                }
                JOINT RightHandThumb1
                {
                  OFFSET -1.833 -1.38751 1.3896
                  CHANNELS 3 Zrotation Xrotation Yrotation
                  JOINT RightHandThumb2
                  {
                    OFFSET -3.41299 -1.12099 2.5732
                    CHANNELS 3 Zrotation Xrotation Yrotation
                    JOINT RightHandThumb3
                    {
                      OFFSET -2.24741 -0.804108 1.6192
                      CHANNELS 3 Zrotation Xrotation Yrotation
                      End Site
                      {
                        OFFSET -1.6527 -0.5689 1.1317
                      }
                    }
                  }
                }
              }
            }
          }
        }
      }
    }
  }
  JOINT RightUpLeg
  {
    OFFSET -9.1966 3.8861 -0.7581
    CHANNELS 3 Zrotation Xrotation Yrotation
    JOINT RightLeg
    {
      OFFSET -0.7359 -41.0265 0
      CHANNELS 3 Zrotation Xrotation Yrotation
      JOINT RightFoot
      {
        OFFSET 0 -40.2855 0
        CHANNELS 3 Zrotation Xrotation Yrotation
        JOINT RightToeBase
        {
          OFFSET 0 -5.6122 11.7359
          CHANNELS 3 Zrotation Xrotation Yrotation
          End Site
          {
            OFFSET 0 0 7.8731
          }
        }
      }
    }
  }
  JOINT LeftUpLeg
  {
    OFFSET 9.1965 3.8864 -0.7581
    CHANNELS 3 Zrotation Xrotation Yrotation
    JOINT LeftLeg
    {
      OFFSET 0.7359 -41.0268 0
      CHANNELS 3 Zrotation Xrotation Yrotation
      JOINT LeftFoot
      {
        OFFSET 0 -40.2855 0
        CHANNELS 3 Zrotation Xrotation Yrotation
        JOINT LeftToeBase
        {
          OFFSET 0 -5.6122 11.7359
          CHANNELS 3 Zrotation Xrotation Yrotation
          End Site
          {
            OFFSET 0 0 7.8731
          }
        }
      }
    }
  }
}
MOTION
Frames:	4
Frame Time:	0.0333333
0.0677953 -7.96505 6.35038 -0 -89.0022 -0 0 0 -0 0 0 -0 0 0 -0 -0.050171 16.997 -3.75009e-008 -0.0417266 -7.82124 24.3324 -0.050171 8.41041e-008 -6.19603e-010 -13.2366 -60.0034 -0.00257743 -3.3707 -20.3273 -23.9663 14.9982 -7.70746e-007 -1.96362e-006 3.77691e-015 0 -1.59028e-015 3.57812e-015 -3.18055e-015 -1.59028e-015 -1.98785e-016 -7.95139e-016 -0 3.77691e-015 0 -1.59028e-015 -0.0146012 -8.81816e-005 -1.16409e-006 -5.96354e-016 -3.18055e-015 3.18055e-015 3.77691e-015 0 -1.59028e-015 -0.0187637 -0.00117652 6.02047e-005 3.97569e-016 -2.38542e-015 -6.36111e-015 3.77691e-015 0 -1.59028e-015 -0.0122626 -0.00324697 0.000675405 1.98785e-016 7.95139e-016 -4.77083e-015 3.77691e-015 0 -1.59028e-015 3.57812e-015 -3.18055e-015 -1.59028e-015 -1.98785e-016 -7.95139e-016 -0 -0.0501685 -2.91402e-006 29.9987 -69.7399 -57.1727 -26.5087 18.2673 9.6698 131.322 1.98785e-016 -3.18055e-015 -3.97569e-016 -3.97569e-016 -3.18055e-015 3.97569e-016 3.97569e-016 0 -0 -1.98785e-016 0 3.97569e-016 -3.97569e-016 -3.18055e-015 3.97569e-016 0.014993 -9.68887e-005 4.31262e-007 -5.96354e-016 -1.27222e-014 3.97569e-016 -3.97569e-016 -3.18055e-015 3.97569e-016 0.0190336 -0.0011905 -5.97326e-005 1.98785e-016 -3.18055e-015 -7.95139e-016 -3.97569e-016 -3.18055e-015 3.97569e-016 0.012367 -0.00327395 -0.000681393 -1.59028e-015 -1.59028e-014 -3.97569e-016 -3.97569e-016 -3.18055e-015 3.97569e-016 3.97569e-016 0 -0 -1.98785e-016 0 3.97569e-016 4.63909 -5.84934 0.347376 -2.22047e-007 7.30863 12.653 -5.4088 43.7717 2.1035 9.44261e-007 -9.73863e-008 6.92687e-008 -13.768 -0.172443 0.0504831 1.66276e-007 4.69932 -13.8405 3.99341 17.2662 -0.606547 2.6706e-007 -4.46508e-008 1.86602e-006 
0.0677956 -7.96506 6.35038 -0 -89.0022 -0 0 0 -0 0 0 -0 0 0 -0 -0.0498319 16.997 -4.13637e-008 -0.0320068 -7.86695 24.499 -0.049832 8.41035e-008 9.15966e-010 -13.4282 -60.0034 -0.00254268 -3.32647 -20.3343 -23.839 14.9982 1.85637e-006 -1.12656e-006 7.95139e-016 3.18055e-015 1.59028e-015 -7.95139e-016 1.59028e-015 3.18055e-015 -4.57205e-015 2.38542e-015 -1.59028e-015 7.95139e-016 3.18055e-015 1.59028e-015 -0.0146301 -8.84686e-005 -5.78236e-007 -9.93923e-016 2.38542e-015 1.59028e-015 7.95139e-016 3.18055e-015 1.59028e-015 -0.0187577 -0.00117514 5.77322e-005 -1.98785e-016 7.95139e-016 -4.77083e-015 7.95139e-016 3.18055e-015 1.59028e-015 -0.0122625 -0.00324537 0.000676895 -1.98785e-016 2.38542e-015 1.59028e-015 7.95139e-016 3.18055e-015 1.59028e-015 -7.95139e-016 1.59028e-015 3.18055e-015 -4.57205e-015 2.38542e-015 -1.59028e-015 -0.0498286 -6.8981e-006 29.9987 -69.7399 -57.1727 -26.5087 18.2673 9.66981 131.322 -8.06411e-008 -4.44915e-007 -9.11379e-008 -2.24627e-014 3.18055e-015 1.39149e-014 5.14992e-008 4.48598e-007 -1.14505e-008 -8.06411e-008 -4.44915e-007 -9.11379e-008 -2.24627e-014 3.18055e-015 1.39149e-014 0.0150272 -9.62504e-005 1.6592e-007 -7.87948e-008 -4.44939e-007 -9.10795e-008 -2.24627e-014 3.18055e-015 1.39149e-014 0.0189581 -0.00119032 -6.024e-005 -7.83125e-008 -4.45077e-007 -9.10709e-008 -2.24627e-014 3.18055e-015 1.39149e-014 0.0123106 -0.00325927 -0.000678104 5.96354e-016 0 -0 -2.24627e-014 3.18055e-015 1.39149e-014 5.14992e-008 4.48598e-007 -1.14505e-008 -8.06411e-008 -4.44915e-007 -9.11379e-008 4.63204 -5.85844 0.347005 -6.66204e-006 7.32789 12.7396 -5.51241 43.8895 2.16942 5.96354e-016 -3.18055e-015 -4.57205e-015 -13.7639 -0.174843 0.05036 2.56576e-006 4.70214 -13.9398 3.99612 17.2713 -0.607137 -7.76502e-007 -2.31024e-006 -5.61528e-008 
0.0677948 -7.96508 6.35038 -0 -89.0022 -0 0 0 -0 0 0 -0 0 0 -0 -0.0494929 16.997 -3.8845e-008 -0.019942 -7.92314 24.7037 -0.049493 8.41038e-008 3.17855e-011 -13.6635 -60.0034 -0.00250992 -3.27217 -20.3428 -23.6828 14.9982 -2.89503e-007 -1.70886e-006 -7.74499e-007 -9.1765e-007 7.01524e-009 5.96354e-016 -7.95139e-016 -0 -7.74499e-007 -9.1765e-007 7.01525e-009 -7.74499e-007 -9.1765e-007 7.01524e-009 -0.0145929 -8.84473e-005 6.13295e-007 -7.74515e-007 -9.17651e-007 6.89898e-009 -7.74499e-007 -9.1765e-007 7.01524e-009 -0.0187853 -0.00117778 6.02504e-005 -7.7452e-007 -9.17652e-007 6.87283e-009 -7.74499e-007 -9.1765e-007 7.01524e-009 -0.0122484 -0.00324201 0.000675981 -7.74518e-007 -9.1765e-007 6.93982e-009 -7.74499e-007 -9.1765e-007 7.01524e-009 5.96354e-016 -7.95139e-016 -0 -7.74499e-007 -9.1765e-007 7.01525e-009 -0.0494926 3.15273e-006 29.9987 -69.7398 -57.1727 -26.5087 18.2673 9.6698 131.322 1.59028e-015 -3.18055e-015 -0 1.98785e-016 0 3.97569e-016 5.96354e-016 6.36111e-015 -7.95139e-016 1.59028e-015 -3.18055e-015 -1.19271e-015 1.98785e-016 0 3.97569e-016 0.0150063 -9.67422e-005 1.17672e-007 1.39149e-015 6.36111e-015 -0 1.98785e-016 0 3.97569e-016 0.0189889 -0.0011906 -5.96541e-005 -9.93923e-016 6.36111e-015 7.95139e-016 1.98785e-016 0 3.97569e-016 0.0122509 -0.00324318 -0.000674595 -5.96354e-016 -6.36111e-015 -1.59028e-015 1.98785e-016 0 3.97569e-016 5.96354e-016 6.36111e-015 -7.95139e-016 1.59028e-015 -3.18055e-015 -1.19271e-015 4.62322 -5.84827 0.346342 -4.50179e-006 7.30849 12.8491 -5.63483 44.0554 2.25009 -1.13846e-006 -3.03602e-006 -4.69046e-007 -13.7587 -0.154002 0.050422 4.20566e-006 4.65766 -14.0636 3.99353 17.301 -0.607807 -9.63826e-007 -1.91743e-006 4.75606e-007 
0.0677939 -7.96509 6.35038 -0 -89.0022 -0 0 0 -0 0 0 -0 0 0 -0 -0.0491539 16.997 -7.88691e-008 -0.00759357 -7.97918 24.9083 -0.049154 8.41052e-008 -3.14894e-009 -13.8987 -60.0034 -0.00247949 -3.21787 -20.3511 -23.5267 14.9982 7.66305e-007 -1.51218e-006 2.38542e-015 -3.18055e-015 -0 2.38542e-015 -3.97569e-015 -0 2.38542e-015 -1.59028e-015 -0 2.38542e-015 -3.18055e-015 -0 -0.0145956 -8.8955e-005 -7.07015e-007 -6.74961e-007 1.07821e-007 5.37501e-007 2.38542e-015 -3.18055e-015 -0 -0.018744 -0.00117538 5.90636e-005 2.5842e-015 -7.95139e-016 -4.77083e-015 2.38542e-015 -3.18055e-015 -0 -0.0122752 -0.00324987 0.000677507 -3.97569e-015 0 -0 2.38542e-015 -3.18055e-015 -0 2.38542e-015 -3.97569e-015 -0 2.38542e-015 -1.59028e-015 -0 -0.049155 -6.39687e-006 29.9987 -69.7399 -57.1727 -26.5087 18.2673 9.66981 131.322 -3.81212e-007 -9.77931e-009 2.19156e-007 3.61582e-007 3.28893e-006 1.28429e-009 5.96354e-016 0 -0 4.39496e-007 2.4136e-009 -1.39788e-008 3.61582e-007 3.28893e-006 1.28429e-009 0.0149377 -9.23155e-005 6.70427e-007 4.39498e-007 2.41177e-009 -1.39795e-008 3.61582e-007 3.28893e-006 1.28429e-009 0.0190185 -0.00119042 -5.97629e-005 4.39498e-007 2.41134e-009 -1.39838e-008 3.61582e-007 3.28893e-006 1.28429e-009 0.0121947 -0.00323219 -0.000672448 4.39497e-007 2.41424e-009 -1.39915e-008 3.61582e-007 3.28893e-006 1.28429e-009 5.96354e-016 0 -0 4.39496e-007 2.4136e-009 -1.39788e-008 4.6147 -5.88162 0.346103 -4.68925e-006 7.37684 12.9523 -5.7692 44.1776 2.33344 1.72739e-006 -1.47428e-007 -2.46769e-007 -13.7536 -0.181353 0.0500488 1.94092e-006 4.71038 -14.1834 4.00287 17.2832 -0.608589 -5.85943e-009 9.64085e-006 -2.72998e-007 
